<?xml version="1.0" standalone="no"?>
<!DOCTYPE svg PUBLIC "-//W3C//DTD SVG 20010904//EN"
 "http://www.w3.org/TR/2001/REC-SVG-20010904/DTD/svg10.dtd">
<svg version="1.0" xmlns="http://www.w3.org/2000/svg"
 width="6912.000000pt" height="3456.000000pt" viewBox="0 0 6912.000000 3456.000000"
 preserveAspectRatio="xMidYMid meet">

<g transform="translate(0.000000,3456.000000) scale(0.100000,-0.100000)"
fill="#000000" stroke="none">
<path d="M0 17280 l0 -17280 8605 0 8605 0 0 1585 0 1585 -510 0 -510 0 0
1110 0 1110 509 0 508 0 6 313 c9 534 71 855 228 1186 103 217 201 353 371
517 328 315 793 492 1408 534 80 5 576 10 1113 10 l967 0 0 -995 0 -995 -474
0 c-278 0 -507 -4 -553 -11 -92 -12 -184 -52 -232 -100 -72 -71 -111 -208
-111 -385 l0 -74 660 0 660 0 0 -1110 0 -1110 -580 0 -580 0 0 -1585 0 -1585
840 0 840 0 0 2695 0 2695 1030 -2 1031 -3 63 -160 c35 -88 89 -226 121 -307
l57 -148 103 98 c298 284 680 451 1165 506 105 13 248 16 643 16 l507 0 -2
-1282 -3 -1283 -565 -5 c-492 -5 -576 -8 -650 -24 -377 -80 -565 -304 -610
-726 -6 -56 -10 -497 -10 -1082 l0 -988 1225 0 1225 0 0 2695 0 2695 1440 0
1440 0 0 -2695 0 -2695 886 0 886 0 -78 56 c-117 84 -226 179 -344 301 -434
446 -695 1032 -782 1758 -20 171 -17 704 5 880 107 828 452 1486 1020 1942
518 416 1245 628 1997 583 354 -21 695 -95 973 -211 40 -17 80 -33 90 -36 16
-5 17 53 17 1116 l0 1121 1440 0 1440 0 0 -3755 0 -3755 602 0 c331 0 598 4
593 8 -6 5 -38 33 -73 62 -234 199 -411 520 -483 875 -31 154 -38 491 -14 656
117 808 701 1337 1606 1455 104 14 277 17 1068 21 l943 5 -4 182 c-4 174 -5
183 -33 244 -55 123 -174 192 -329 192 -210 0 -347 -118 -365 -315 l-6 -70
-1318 -3 -1318 -2 6 47 c29 211 102 494 176 676 302 752 939 1233 1874 1417
308 60 588 84 990 84 777 -1 1374 -125 1875 -391 448 -238 798 -611 994 -1061
76 -173 146 -403 180 -592 52 -288 50 -196 53 -1902 l4 -1588 1215 0 c969 0
1215 3 1211 12 -42 108 -1936 4833 -2028 5061 l-128 317 1547 0 1547 0 203
-798 c169 -662 221 -885 308 -1317 58 -286 107 -521 109 -524 6 -5 5 -10 115
559 67 350 158 766 282 1298 l183 782 1527 0 c841 0 1528 -3 1528 -7 0 -5
-459 -1217 -1019 -2695 l-1018 -2688 9493 0 9494 0 0 17280 0 17280 -11420 0
-11420 0 0 -1841 0 -1841 88 7 c258 21 356 73 435 234 20 41 100 306 217 725
l186 661 1477 3 1476 2 -58 -167 c-893 -2557 -855 -2452 -956 -2653 l-63 -125
644 -1330 c355 -732 655 -1354 669 -1382 l24 -53 -1587 0 -1587 0 -360 875
-360 875 -122 0 -123 0 0 -875 0 -875 -1440 0 -1440 0 0 3880 0 3880 -7390 0
-7390 0 0 -3880 0 -3880 -1445 0 -1445 0 0 3880 0 3880 -2330 0 -2330 0 0
-1089 0 -1089 83 35 c202 86 441 151 703 194 187 30 640 38 844 15 1076 -125
1877 -721 2259 -1684 241 -606 299 -1377 155 -2064 -96 -460 -297 -893 -571
-1233 -103 -128 -321 -340 -443 -431 -292 -219 -640 -381 -1005 -469 -258 -62
-469 -85 -786 -85 -330 0 -612 40 -899 127 -307 93 -639 265 -876 456 l-81 64
-103 -253 -103 -254 -1028 0 -1029 0 0 3880 0 3880 -9095 0 -9095 0 0 -17280z
m33056 15350 c526 -49 946 -162 1310 -350 776 -400 1190 -1080 1264 -2075 6
-88 10 -746 10 -1773 l0 -1632 -1036 2 -1037 3 -109 287 -110 288 -60 -53
c-443 -390 -918 -588 -1553 -647 -246 -23 -659 -11 -900 26 -676 104 -1189
434 -1436 925 -236 471 -236 1135 2 1614 248 500 721 814 1389 922 92 15 223
17 1083 20 l977 4 0 182 c-1 148 -4 192 -18 233 -59 169 -279 259 -475 193
-137 -46 -210 -138 -230 -290 l-11 -79 -1313 0 -1313 0 0 23 c0 85 82 437 140
602 158 448 451 828 840 1092 350 237 856 409 1375 468 263 29 320 32 661 34
270 1 384 -3 550 -19z m6854 5 c525 -49 959 -165 1365 -365 729 -360 1233
-946 1460 -1696 41 -134 89 -366 105 -499 5 -49 12 -109 16 -132 l5 -43 -1315
0 -1315 0 -42 80 c-48 92 -152 211 -229 260 -83 53 -180 87 -285 101 -235 29
-424 -25 -570 -162 -82 -78 -135 -162 -172 -274 -25 -74 -27 -93 -28 -250 0
-162 1 -174 29 -259 34 -104 104 -215 174 -276 138 -122 338 -177 550 -151
260 32 436 159 549 396 l35 75 1315 0 1315 0 -6 -37 c-3 -21 -8 -67 -11 -103
-44 -462 -212 -939 -463 -1314 -112 -167 -172 -238 -341 -406 -362 -361 -777
-599 -1314 -754 -432 -125 -822 -172 -1357 -163 -335 5 -510 23 -785 78 -1021
204 -1783 747 -2189 1558 -143 286 -235 598 -282 956 -21 161 -25 600 -6 750
90 710 346 1253 806 1710 145 144 250 232 401 334 480 327 1038 517 1710 586
185 18 672 18 875 0z m25070 -15355 l0 -7520 -1330 0 -1330 0 0 7520 0 7520
1330 0 1330 0 0 -7520z m-59436 4719 c73 -27 148 -96 183 -167 26 -52 28 -67
28 -167 0 -104 -2 -114 -33 -177 -37 -76 -83 -120 -162 -157 -45 -21 -70 -25
-140 -26 -122 0 -179 22 -257 100 -53 53 -64 71 -84 134 -59 198 31 403 203
462 74 26 191 25 262 -2z m206 -1008 l0 -89 -102 -59 -103 -59 -3 -52 -3 -52
105 0 106 0 0 -75 0 -75 -340 0 -340 0 0 153 c0 226 28 310 121 357 108 56
251 23 308 -71 l17 -28 115 69 c63 38 115 69 117 70 1 0 2 -40 2 -89z m-117
-732 c12 -6 37 -25 55 -42 51 -49 62 -103 62 -309 l0 -178 -341 0 -341 0 4
188 c3 171 5 191 27 234 28 58 69 89 126 96 65 7 110 -5 145 -38 l32 -30 21
26 c34 44 77 64 135 64 29 0 63 -5 75 -11z m117 -904 l0 -75 -202 -2 -202 -3
117 -80 117 -80 0 -56 0 -56 -116 -79 -116 -79 201 -3 201 -2 0 -75 0 -75
-340 0 -340 0 0 64 0 64 175 118 c96 66 174 121 174 124 0 3 -78 58 -174 123
l-175 118 0 64 0 65 340 0 340 0 0 -75z m14866 -505 c277 -24 482 -92 683
-224 329 -215 528 -585 581 -1078 5 -54 10 -169 10 -257 0 -733 -309 -1241
-877 -1445 -157 -56 -355 -86 -563 -86 -747 0 -1248 391 -1394 1087 -108 517
-30 1069 202 1433 262 410 767 622 1358 570z m2584 -20 c60 -13 133 -40 199
-72 88 -43 117 -64 185 -132 142 -141 200 -288 200 -506 0 -137 -14 -207 -63
-314 -132 -288 -479 -450 -888 -416 -229 19 -409 95 -543 230 -77 78 -131 166
-167 275 -24 71 -27 96 -27 225 -1 125 2 155 22 220 36 116 85 195 177 287 70
69 98 89 186 131 163 79 285 103 489 97 91 -2 166 -10 230 -25z m-4570 -395
l0 -364 -250 -212 c-137 -116 -250 -215 -250 -219 0 -4 12 -11 28 -15 51 -12
194 -84 256 -129 140 -100 266 -265 321 -423 60 -174 71 -415 26 -587 -96
-366 -430 -629 -891 -702 -234 -37 -586 -25 -805 27 -411 97 -671 320 -780
669 -26 84 -55 245 -55 308 l0 32 518 0 518 0 13 -50 c23 -90 85 -139 194
-155 56 -7 140 14 181 46 69 54 90 178 44 267 -19 36 -36 53 -77 74 l-53 28
-314 0 -314 0 2 287 3 287 207 161 c114 88 207 162 207 165 1 3 -3 11 -8 19
-8 13 -39 13 -223 3 -117 -7 -342 -12 -500 -12 l-288 0 0 430 0 430 1145 0
1145 0 0 -365z m6752 127 c-76 -130 -461 -801 -857 -1490 l-720 -1252 -503 0
c-277 0 -501 3 -499 8 2 4 388 674 857 1490 l853 1482 503 0 502 0 -136 -238z
m-19632 -367 l0 -225 -340 0 -340 0 0 220 0 220 65 0 65 0 0 -145 0 -145 70 0
70 0 0 135 0 135 65 0 65 0 0 -135 0 -135 75 0 75 0 0 150 0 150 65 0 65 0 0
-225z m23150 -50 c406 -47 714 -225 919 -528 127 -187 201 -462 201 -741 l0
-126 -826 0 -825 0 6 -22 c34 -110 105 -192 192 -222 60 -20 193 -21 261 -1
28 9 72 31 97 50 l45 35 511 0 510 0 -6 -22 c-15 -51 -95 -209 -135 -268 -54
-80 -176 -208 -253 -266 -127 -95 -299 -174 -475 -218 -178 -44 -237 -51 -472
-50 -206 0 -236 2 -352 27 -148 31 -240 63 -363 125 -123 61 -195 112 -291
204 -198 190 -308 432 -334 735 -32 366 86 693 338 935 206 197 468 314 802
357 106 14 317 12 450 -4z m3223 4 c193 -29 349 -102 477 -225 l85 -82 60 55
c180 165 386 248 645 260 459 21 808 -195 936 -579 56 -171 56 -171 61 -995
l4 -763 -565 0 -566 0 0 633 c0 551 -2 640 -16 687 -29 98 -112 150 -213 135
-57 -9 -123 -70 -140 -130 -7 -27 -11 -243 -11 -682 l0 -643 -535 0 -534 0 -3
653 -3 653 -26 49 c-71 139 -252 139 -327 0 -15 -27 -17 -98 -20 -692 l-3
-663 -564 0 -565 0 0 1140 0 1140 401 -2 401 -3 42 -105 c23 -58 45 -113 49
-124 7 -16 12 -14 51 22 154 142 340 232 542 261 86 12 254 13 337 0z m5457
-19 c165 -43 311 -127 409 -236 l50 -57 61 59 c139 136 332 225 548 254 109
15 294 9 398 -14 345 -74 586 -317 667 -671 20 -86 21 -125 24 -867 l4 -778
-565 0 -566 0 0 643 c0 439 -4 655 -11 682 -17 60 -83 121 -140 130 -101 15
-184 -37 -213 -135 -14 -47 -16 -136 -16 -687 l0 -633 -535 0 -535 0 0 638 c0
720 1 712 -69 775 -69 62 -181 59 -247 -7 -64 -64 -64 -69 -64 -773 l0 -633
-565 0 -565 0 0 1140 0 1140 403 0 402 0 49 -125 c27 -69 52 -125 56 -125 3 0
24 18 45 41 117 120 317 220 510 254 118 21 355 13 465 -15z m4052 14 c326
-42 591 -156 784 -338 245 -230 355 -498 355 -867 -1 -647 -455 -1093 -1190
-1170 -140 -14 -410 -7 -536 15 -361 64 -659 231 -838 471 -126 168 -198 370
-217 607 -51 634 335 1124 992 1258 206 42 441 51 650 24z m5838 -9 c505 -83
785 -326 835 -722 l7 -53 -516 0 c-477 0 -516 1 -516 17 0 37 -41 100 -79 121
-115 65 -255 -18 -222 -130 25 -81 109 -108 447 -143 506 -52 797 -213 895
-495 34 -100 39 -287 9 -397 -29 -108 -79 -192 -166 -278 -158 -158 -427 -256
-779 -285 -415 -34 -796 21 -1044 150 -254 133 -386 322 -415 593 l-6 57 534
0 533 0 7 -38 c12 -77 75 -125 162 -125 86 0 139 46 137 119 -3 101 -107 143
-438 179 -332 36 -532 99 -690 218 -280 212 -304 674 -49 933 163 165 409 258
775 294 132 12 465 4 579 -15z m2640 10 c69 -8 175 -28 235 -45 132 -37 324
-128 416 -199 308 -234 469 -588 469 -1033 l0 -118 -826 0 -825 0 6 -22 c48
-162 150 -238 319 -238 101 0 171 20 231 65 l45 35 510 0 c281 0 510 -1 510
-3 0 -2 -11 -32 -25 -66 -135 -345 -432 -597 -827 -700 -188 -49 -246 -56
-488 -55 -206 0 -236 2 -352 27 -451 96 -762 339 -911 713 -58 143 -80 272
-80 459 0 170 10 240 58 386 112 337 388 601 758 724 240 80 498 103 777 70z
m2849 -15 c395 -69 646 -239 755 -513 25 -64 56 -194 56 -238 0 -18 -15 -19
-515 -19 -484 0 -515 1 -515 18 0 9 -9 36 -19 59 -52 115 -242 111 -279 -5
-12 -37 -12 -46 5 -79 33 -67 111 -91 397 -123 225 -24 353 -49 473 -91 308
-108 461 -281 492 -554 24 -205 -37 -383 -179 -525 -210 -210 -605 -315 -1115
-296 -440 16 -743 120 -942 325 -105 108 -183 291 -183 428 l0 53 529 0 528 0
7 -38 c12 -77 75 -125 162 -125 107 0 168 77 128 160 -38 76 -138 106 -499
147 -313 36 -534 120 -670 256 -96 94 -142 186 -164 321 -44 270 61 516 283
663 160 106 403 175 701 200 127 10 442 -3 564 -24z m-8817 -682 l3 -653 25
-49 c42 -83 108 -113 204 -95 57 11 96 42 129 104 22 40 22 46 25 693 l3 652
559 0 560 0 0 -1140 0 -1140 -398 0 -398 0 -49 123 c-26 67 -49 124 -51 125
-1 2 -36 -25 -77 -61 -178 -155 -380 -232 -643 -244 -348 -16 -633 91 -811
306 -111 135 -181 319 -203 530 -6 60 -10 392 -10 802 l0 699 565 0 564 0 3
-652z m-38392 7 l0 -255 -60 0 -59 0 -206 150 c-113 83 -208 150 -210 150 -3
0 -5 -65 -5 -145 l0 -145 -70 0 -70 0 0 245 0 245 61 0 60 0 207 -150 207
-149 3 154 3 155 69 0 70 0 0 -255z m19815 -240 c426 -69 671 -356 652 -764
-12 -273 -140 -471 -382 -591 -153 -76 -242 -94 -460 -94 -218 0 -307 18 -460
94 -174 87 -296 223 -351 393 -35 107 -44 294 -20 407 60 288 301 499 634 555
106 18 279 18 387 0z m-19815 -470 l0 -225 -340 0 -340 0 0 220 0 220 65 0 65
0 0 -145 0 -145 70 0 69 0 3 133 3 132 63 3 62 3 0 -136 0 -135 75 0 75 0 0
150 0 150 65 0 65 0 0 -225z m-192 -515 c76 -33 146 -113 172 -197 17 -54 20
-93 20 -229 l0 -164 -341 0 -341 0 4 178 c4 149 8 185 26 230 38 97 111 167
205 198 63 21 190 13 255 -16z m192 -1450 l0 -230 -337 2 -338 3 -3 223 -2
222 65 0 65 0 0 -145 0 -145 70 0 70 0 0 130 0 130 65 0 65 0 0 -130 0 -130
75 0 75 0 0 150 0 150 65 0 65 0 0 -230z m-274 -491 c114 -21 196 -86 246
-195 20 -44 23 -68 26 -236 l4 -188 -341 0 -341 0 0 143 c0 79 5 170 11 202
27 149 121 247 262 274 60 12 66 12 133 0z m160 -1268 c49 -22 97 -78 113
-130 6 -21 11 -70 11 -108 0 -125 -75 -226 -178 -240 l-42 -6 0 72 c0 65 2 72
23 80 41 16 62 49 62 101 0 66 -31 100 -90 100 -32 0 -47 -6 -66 -26 -21 -22
-24 -37 -28 -110 l-3 -84 -43 0 c-39 0 -49 6 -113 66 l-71 65 -3 -123 -3 -123
-67 -3 -68 -3 0 231 0 230 57 0 58 0 77 -77 c52 -52 78 -72 78 -60 0 25 34 88
62 114 57 53 159 68 234 34z m23179 -4226 c388 -55 664 -184 899 -418 300
-299 446 -731 407 -1200 -48 -578 -340 -1002 -844 -1224 -353 -156 -838 -186
-1249 -79 -541 142 -922 533 -1042 1071 -26 117 -36 220 -36 373 1 500 196
913 560 1189 145 109 390 218 580 258 216 46 527 59 725 30z"/>
<path d="M32160 32543 c-852 -59 -1471 -288 -1907 -707 -128 -123 -209 -219
-295 -351 -72 -109 -174 -314 -223 -449 -38 -103 -108 -365 -120 -449 l-6 -47
1207 2 1207 3 13 52 c27 107 90 193 186 254 139 89 383 92 530 7 60 -36 135
-118 164 -182 37 -81 44 -141 44 -372 l0 -213 -997 -4 c-842 -3 -1015 -7
-1108 -20 -286 -41 -471 -96 -685 -203 -414 -209 -679 -535 -790 -978 -38
-150 -50 -261 -50 -456 1 -477 139 -831 438 -1125 121 -118 240 -202 412 -288
269 -135 535 -203 930 -238 151 -13 544 -7 675 11 411 55 635 119 929 267 202
101 379 229 565 408 l108 105 125 -328 125 -327 952 -3 952 -2 -4 1637 c-4
1435 -6 1655 -20 1773 -46 373 -113 628 -236 885 -76 159 -126 243 -218 367
-428 575 -1152 900 -2151 968 -138 9 -637 11 -752 3z m837 -3590 c-3 -111 -11
-188 -22 -228 -58 -207 -216 -359 -432 -416 -93 -24 -285 -29 -378 -10 -133
28 -273 121 -321 212 -70 135 -53 318 39 431 73 89 200 151 344 167 37 5 227
9 422 10 l354 1 -6 -167z"/>
<path d="M32170 28994 c-130 -34 -223 -107 -249 -196 -22 -72 -16 -162 14
-223 60 -123 192 -185 395 -185 228 0 397 81 489 234 44 74 67 158 76 284 l7
102 -338 -1 c-264 0 -351 -4 -394 -15z"/>
<path d="M39170 32544 c-490 -44 -814 -117 -1189 -265 -664 -264 -1195 -739
-1482 -1327 -134 -274 -213 -531 -266 -872 -22 -145 -26 -681 -5 -825 75 -525
240 -941 522 -1313 492 -651 1265 -1049 2250 -1159 221 -24 723 -24 955 0 813
86 1453 347 1947 793 373 337 644 794 773 1306 28 110 75 372 75 419 l0 29
-1218 0 -1219 0 -53 -91 c-63 -105 -172 -216 -270 -273 -35 -21 -105 -52 -155
-69 -87 -31 -96 -32 -260 -32 -195 0 -251 11 -380 75 -189 93 -318 257 -376
475 -32 119 -32 346 0 470 25 99 74 204 128 277 88 120 240 224 388 264 93 25
311 30 415 9 208 -42 398 -178 504 -360 l39 -65 1223 0 1224 0 0 23 c0 30 -36
244 -56 326 -88 383 -261 749 -502 1061 -83 107 -310 336 -420 422 -479 377
-1086 609 -1807 688 -99 11 -698 22 -785 14z"/>
<path d="M63785 22768 c-22 -26 -26 -39 -21 -66 8 -51 41 -82 88 -82 53 0 88
35 88 88 0 59 -30 92 -85 92 -36 0 -47 -5 -70 -32z"/>
<path d="M63250 22710 l0 -80 218 0 c119 0 223 4 230 9 9 5 12 28 10 77 l-3
69 -227 3 -228 2 0 -80z"/>
<path d="M63585 22285 l-330 -132 -3 -79 -3 -79 334 -133 c183 -72 337 -132
340 -132 4 0 7 38 7 84 l0 83 -52 20 -53 20 -3 135 -3 135 53 19 53 19 3 88
c1 48 -1 87 -5 86 -4 -1 -156 -61 -338 -134z m105 -210 c0 -47 -4 -85 -10 -85
-5 0 -57 19 -117 42 l-107 41 109 43 c61 24 113 43 118 43 4 1 7 -37 7 -84z"/>
<path d="M63810 21474 c-58 -35 -107 -64 -110 -64 -3 0 -15 15 -27 34 -65 100
-254 115 -346 28 -65 -61 -72 -88 -75 -299 l-4 -193 341 0 341 0 0 80 0 80
-105 0 -105 0 0 49 0 49 105 59 105 58 0 93 c0 50 -3 92 -7 91 -5 0 -55 -30
-113 -65z m-265 -126 c29 -26 44 -78 45 -155 l0 -53 -100 0 -100 0 0 78 c0 42
6 88 13 102 26 51 98 65 142 28z"/>
<path d="M63485 20720 c-55 -17 -139 -74 -171 -117 -57 -74 -76 -144 -72 -253
4 -119 33 -185 112 -257 69 -63 136 -88 241 -87 104 1 178 29 243 92 177 173
131 493 -85 599 -47 23 -72 28 -147 30 -50 1 -104 -2 -121 -7z m155 -161 c59
-13 116 -57 136 -106 32 -75 7 -196 -50 -241 -65 -50 -184 -56 -250 -11 -47
31 -86 108 -86 168 1 108 72 183 192 200 4 1 30 -4 58 -10z"/>
<path d="M63540 19596 l0 -196 65 0 65 0 0 110 c0 61 3 110 8 110 21 0 81 -53
97 -86 69 -146 -24 -294 -186 -294 -119 0 -199 79 -199 196 0 65 20 114 61
148 28 23 29 29 29 105 0 95 -7 100 -81 52 -59 -38 -92 -75 -126 -141 -26 -51
-28 -64 -28 -165 0 -92 4 -118 22 -157 30 -66 92 -129 160 -164 53 -26 67 -29
158 -29 123 0 179 19 248 84 143 133 154 365 24 507 -65 72 -138 106 -239 112
l-78 5 0 -197z"/>
<path d="M63585 18765 l-330 -132 -3 -79 -3 -79 334 -133 c183 -72 337 -132
340 -132 4 0 7 38 7 84 l0 83 -52 20 -53 20 -3 135 -3 135 53 19 53 19 3 88
c1 48 -1 87 -5 86 -4 -1 -156 -61 -338 -134z m105 -210 c0 -47 -4 -85 -10 -85
-5 0 -57 19 -117 42 l-107 41 109 43 c61 24 113 43 118 43 4 1 7 -37 7 -84z"/>
<path d="M63810 17594 c-58 -35 -107 -64 -110 -64 -3 0 -15 15 -27 34 -65 100
-254 115 -346 28 -65 -61 -72 -88 -75 -299 l-4 -193 341 0 341 0 0 80 0 80
-105 0 -105 0 0 49 0 49 105 59 105 58 0 93 c0 50 -3 92 -7 91 -5 0 -55 -30
-113 -65z m-265 -126 c29 -26 44 -78 45 -155 l0 -53 -100 0 -100 0 0 78 c0 42
6 88 13 102 26 51 98 65 142 28z"/>
<path d="M63582 16747 l-332 -132 2 -79 3 -80 320 -128 c176 -71 328 -131 338
-134 16 -5 18 2 15 81 l-3 87 -52 20 -53 19 0 134 0 133 55 22 55 22 0 84 c0
46 -3 84 -7 83 -5 0 -158 -60 -341 -132z m108 -212 c0 -47 -2 -85 -5 -85 -10
0 -225 83 -223 86 7 6 203 82 216 83 9 1 12 -22 12 -84z"/>
<path d="M63807 15934 c-60 -37 -109 -65 -111 -63 -30 48 -65 81 -101 99 -65
31 -183 26 -238 -11 -91 -63 -108 -119 -105 -344 l3 -170 338 -3 337 -2 0 85
0 85 -106 0 -105 0 3 46 3 46 100 58 100 58 3 91 c1 50 -1 91 -5 91 -4 -1 -57
-30 -116 -66z m-253 -129 c25 -27 36 -71 36 -152 l0 -53 -101 0 -101 0 4 91
c3 85 5 92 31 115 39 34 100 33 131 -1z"/>
<path d="M63435 15201 c-50 -13 -92 -39 -124 -78 -50 -60 -61 -115 -61 -295
l0 -158 340 0 340 0 0 80 0 80 -89 0 -88 0 -7 88 c-3 48 -13 108 -22 134 -37
113 -165 179 -289 149z m126 -174 c27 -21 38 -52 45 -126 l7 -71 -112 0 -111
0 0 60 c0 67 19 122 47 139 25 14 104 13 124 -2z"/>
<path d="M63250 14310 l0 -70 103 -68 c56 -38 134 -91 173 -118 l71 -49 -174
-119 -173 -119 0 -68 0 -69 340 0 340 0 0 80 0 80 -194 2 -195 3 115 78 114
78 0 53 0 53 -116 79 -116 79 196 3 196 2 0 80 0 80 -340 0 -340 0 0 -70z"/>
<path d="M63497 13370 c-98 -25 -182 -95 -226 -189 -23 -50 -26 -68 -26 -166
0 -98 3 -116 26 -166 34 -72 96 -134 168 -167 48 -23 69 -27 151 -27 88 0 101
3 162 33 130 64 191 169 191 327 0 69 -5 103 -22 146 -49 127 -165 208 -307
215 -44 2 -96 -1 -117 -6z m191 -179 c46 -23 67 -46 87 -94 28 -68 14 -169
-33 -220 -56 -62 -179 -78 -257 -33 -65 39 -90 86 -90 172 0 60 4 77 27 111
51 77 179 108 266 64z"/>
<path d="M63464 12427 c-140 -53 -223 -178 -224 -339 0 -99 26 -170 86 -237
64 -71 135 -104 239 -109 174 -9 306 71 362 220 24 66 21 199 -6 270 -28 72
-97 149 -163 182 -84 42 -88 39 -88 -53 l0 -78 41 -27 c110 -73 105 -256 -9
-324 -39 -22 -58 -27 -112 -26 -39 0 -77 7 -95 16 -85 45 -125 146 -94 239 13
38 63 96 91 105 15 5 18 17 18 90 0 46 -3 84 -7 83 -5 0 -22 -6 -39 -12z"/>
<path d="M5375 21860 c-112 -17 -172 -97 -163 -220 5 -77 36 -122 106 -157 45
-22 62 -25 113 -20 100 9 164 67 182 165 15 74 -32 180 -94 213 -30 16 -101
25 -144 19z"/>
<path d="M5239 20881 c-28 -28 -29 -34 -29 -115 l0 -86 100 0 100 0 0 70 c0
116 -29 160 -105 160 -27 0 -44 -8 -66 -29z"/>
<path d="M5523 20113 c-41 -8 -53 -40 -53 -140 l0 -93 81 0 81 0 -4 95 c-2 79
-6 98 -23 114 -23 22 -50 30 -82 24z"/>
<path d="M5226 20079 c-25 -19 -26 -25 -26 -110 l0 -89 75 0 75 0 0 75 c0 84
-12 118 -47 134 -34 16 -47 14 -77 -10z"/>
<path d="M20362 17862 c-140 -50 -206 -197 -219 -482 -10 -239 28 -442 103
-543 46 -63 115 -97 198 -97 151 0 233 74 286 260 17 58 23 113 27 245 9 263
-19 418 -94 525 -67 96 -187 132 -301 92z"/>
<path d="M22873 18245 c-78 -34 -98 -155 -35 -217 25 -25 41 -32 85 -36 96 -8
147 39 147 136 0 101 -99 160 -197 117z"/>
<path d="M28590 17424 c-94 -25 -159 -81 -195 -167 -30 -71 -48 -67 285 -67
165 0 300 4 300 8 0 30 -38 108 -70 145 -69 78 -205 113 -320 81z"/>
<path d="M41288 17257 c-67 -19 -124 -61 -159 -115 -38 -60 -49 -101 -49 -183
0 -132 59 -234 162 -280 80 -36 202 -34 280 4 108 53 163 149 161 284 -1 121
-57 217 -156 266 -66 34 -168 44 -239 24z"/>
<path d="M49800 17424 c-94 -25 -159 -81 -195 -167 -30 -71 -48 -67 286 -67
l301 0 -6 23 c-22 89 -81 164 -154 195 -66 28 -164 35 -232 16z"/>
<path d="M25310 16612 c-85 -42 -93 -169 -14 -231 32 -26 111 -28 154 -6 60
31 83 139 43 194 -24 33 -79 61 -118 61 -16 0 -46 -8 -65 -18z"/>
<path d="M5330 16085 c-77 -35 -106 -87 -116 -208 l-7 -87 203 0 202 0 -4 88
c-5 101 -27 152 -85 192 -45 31 -141 38 -193 15z"/>
<path d="M5348 14126 c-91 -33 -123 -84 -134 -213 l-7 -83 202 0 201 0 0 63
c0 131 -43 205 -135 233 -58 17 -79 17 -127 0z"/>
<path d="M28243 8690 c-405 -62 -716 -238 -932 -530 -250 -337 -326 -836 -196
-1295 34 -123 133 -318 215 -423 164 -212 415 -379 686 -456 417 -118 902 -89
1251 74 379 178 632 501 724 920 27 123 37 411 20 543 -44 328 -176 596 -398
808 -207 197 -472 317 -802 363 -152 22 -411 20 -568 -4z"/>
<path d="M18290 30715 l0 -3805 946 2 946 3 105 260 c57 143 109 271 114 283
l9 24 38 -32 c244 -205 382 -299 587 -400 166 -82 257 -118 409 -164 434 -132
948 -161 1426 -80 962 162 1682 757 2021 1670 135 364 194 724 193 1179 0 308
-15 460 -69 731 -173 852 -663 1514 -1380 1864 -397 194 -738 275 -1210 287
-500 13 -910 -67 -1327 -257 l-128 -58 0 1149 0 1149 -1340 0 -1340 0 0 -3805z
m3699 -304 c200 -68 338 -190 427 -376 61 -128 77 -209 77 -390 0 -145 -2
-168 -27 -250 -38 -125 -88 -214 -168 -300 -149 -159 -337 -235 -584 -235
-385 0 -672 212 -765 565 -28 103 -30 323 -6 432 57 249 230 455 455 539 118
45 175 53 342 50 144 -2 161 -5 249 -35z"/>
<path d="M21560 30336 c-209 -45 -371 -167 -459 -348 -88 -180 -96 -432 -21
-630 29 -79 113 -193 183 -249 189 -152 482 -191 732 -98 194 72 329 234 381
457 20 88 20 278 -1 373 -53 239 -227 423 -460 485 -82 22 -273 27 -355 10z"/>
<path d="M25840 30715 l0 -3805 1335 0 1335 0 0 3805 0 3805 -1335 0 -1335 0
0 -3805z"/>
<path d="M43500 30715 l0 -3805 1335 0 1335 0 0 875 0 875 212 -2 213 -3 359
-872 359 -873 1469 0 1468 0 -14 33 c-8 17 -289 599 -626 1292 -337 693 -619
1276 -627 1297 l-15 36 85 174 c47 95 102 218 122 272 47 130 835 2384 835
2391 0 3 -613 4 -1362 3 l-1362 -3 -172 -610 c-94 -335 -179 -628 -187 -651
-31 -85 -72 -150 -129 -210 -101 -105 -214 -142 -470 -151 l-158 -6 0 1872 0
1871 -1335 0 -1335 0 0 -3805z"/>
<path d="M19085 7824 c-405 -46 -737 -157 -1005 -335 -135 -91 -325 -282 -419
-423 -253 -382 -351 -812 -351 -1548 l0 -228 -505 0 -505 0 0 -1010 0 -1010
505 0 505 0 0 -1635 0 -1635 1335 0 1335 0 0 1635 0 1635 580 0 580 0 0 1010
0 1010 -656 0 -656 0 5 188 c5 203 14 250 69 355 39 72 102 130 182 168 115
54 172 59 662 59 l444 0 0 890 0 890 -992 -1 c-769 -1 -1020 -4 -1113 -15z"/>
<path d="M34757 7403 c-4 -3 -7 -523 -7 -1155 l0 -1148 -69 35 c-237 119 -532
210 -836 258 -122 19 -181 22 -460 22 -287 0 -336 -2 -474 -24 -837 -127
-1499 -572 -1898 -1276 -342 -601 -464 -1457 -322 -2245 87 -481 289 -934 574
-1285 154 -190 395 -404 602 -533 l83 -52 1435 0 1435 0 82 51 c104 64 221
152 321 242 43 38 82 66 86 61 5 -5 39 -87 76 -181 l69 -173 988 0 988 0 -2
3703 -3 3702 -1331 3 c-732 1 -1334 -1 -1337 -5z m-607 -4079 c169 -29 284
-83 391 -182 151 -140 231 -307 247 -520 22 -284 -58 -520 -232 -679 -161
-147 -359 -212 -606 -200 -218 12 -369 76 -510 217 -143 142 -206 293 -217
521 -10 191 27 357 108 496 55 94 190 222 284 270 161 82 348 109 535 77z"/>
<path d="M33851 3220 c-139 -29 -245 -86 -339 -180 -142 -143 -210 -368 -183
-603 25 -219 119 -381 285 -488 198 -129 501 -142 724 -32 92 45 204 148 255
234 21 35 49 100 64 144 24 72 27 95 27 230 1 172 -12 235 -71 355 -28 57 -58
96 -122 160 -92 91 -166 135 -277 166 -69 19 -297 28 -363 14z"/>
<path d="M41045 5423 c-728 -58 -1245 -221 -1666 -524 -143 -103 -359 -319
-451 -449 -202 -287 -333 -612 -402 -997 l-5 -33 1207 0 1207 0 13 52 c38 160
163 280 334 318 81 18 248 8 318 -19 118 -45 213 -147 250 -269 18 -56 20 -93
20 -297 l0 -234 -1007 -4 c-711 -3 -1032 -7 -1088 -16 -347 -52 -614 -141
-825 -276 -485 -310 -730 -803 -707 -1425 11 -277 62 -491 166 -699 88 -174
274 -390 430 -499 l74 -52 1417 0 1416 0 99 66 c134 88 219 158 347 282 l107
104 14 -33 c7 -19 47 -121 87 -227 l73 -192 989 0 988 0 0 1468 c0 1465 -3
1626 -36 1857 -118 827 -513 1409 -1194 1754 -363 185 -814 298 -1354 341
-115 9 -720 12 -821 3z m865 -3567 c0 -92 -6 -171 -15 -218 -45 -212 -191
-369 -410 -438 -99 -31 -303 -39 -409 -16 -254 57 -391 236 -355 465 23 147
117 253 274 310 95 34 157 38 548 40 l367 1 0 -144z"/>
<path d="M41070 1872 c-165 -43 -250 -144 -250 -296 0 -197 192 -321 470 -303
169 11 279 55 371 147 97 96 149 237 149 400 l0 70 -337 -1 c-285 0 -348 -3
-403 -17z"/>
<path d="M21870 2645 l0 -2645 1340 0 1339 0 4 1068 c3 1058 3 1068 25 1164
90 394 311 603 712 674 78 14 182 18 593 21 l497 4 0 1181 0 1180 -492 -5
c-537 -5 -605 -10 -836 -67 -375 -92 -692 -279 -925 -546 -45 -52 -84 -94 -87
-94 -3 0 -68 160 -144 355 l-139 355 -944 0 -943 0 0 -2645z"/>
<path d="M27210 2645 l0 -2645 1335 0 1335 0 0 2645 0 2645 -1335 0 -1335 0 0
-2645z"/>
<path d="M44984 5273 c4 -10 480 -1200 1058 -2646 l1052 -2627 1465 2 1464 3
998 2635 c549 1449 999 2638 999 2643 0 4 -635 6 -1411 5 l-1412 -3 -168 -720
c-118 -501 -204 -900 -284 -1310 -63 -325 -115 -594 -115 -598 0 -4 -42 -6
-92 -5 l-93 3 -122 600 c-105 513 -150 704 -306 1315 l-184 715 -1428 3
c-1357 2 -1427 1 -1421 -15z"/>
<path d="M42170 183 c-47 -41 -116 -98 -154 -127 l-69 -51 203 -3 c112 -1 204
-1 206 1 4 4 -85 240 -94 249 -4 3 -45 -28 -92 -69z"/>
<path d="M35223 157 c-21 -19 -76 -62 -122 -96 l-85 -61 162 0 c89 0 162 1
162 3 0 5 -72 182 -75 185 -2 2 -20 -12 -42 -31z"/>
</g>
</svg>
